<?xml version="1.0" encoding="UTF-8" standalone="no"?>
<!-- Created with Inkscape (http://www.inkscape.org/) -->

<svg
   xmlns:dc="http://purl.org/dc/elements/1.1/"
   xmlns:cc="http://creativecommons.org/ns#"
   xmlns:rdf="http://www.w3.org/1999/02/22-rdf-syntax-ns#"
   xmlns:svg="http://www.w3.org/2000/svg"
   xmlns="http://www.w3.org/2000/svg"
   xmlns:sodipodi="http://sodipodi.sourceforge.net/DTD/sodipodi-0.dtd"
   xmlns:inkscape="http://www.inkscape.org/namespaces/inkscape"
   width="232.40076"
   height="28.172171"
   viewBox="0 0 61.489367 7.4538869"
   version="1.1"
   id="svg2872"
   inkscape:version="0.92.0 r15299"
   sodipodi:docname="bristlecone.svg">
  <defs
     id="defs2866">
    <clipPath
       id="clipPath2174"
       clipPathUnits="userSpaceOnUse">
      <path
         inkscape:connector-curvature="0"
         id="path2172"
         d="M 36,736.372 H 208.8 V 756 H 36 Z" />
    </clipPath>
  </defs>
  <sodipodi:namedview
     id="base"
     pagecolor="#ffffff"
     bordercolor="#666666"
     borderopacity="1.0"
     inkscape:pageopacity="0.0"
     inkscape:pageshadow="2"
     inkscape:zoom="3.8932293"
     inkscape:cx="115.20052"
     inkscape:cy="13.086286"
     inkscape:document-units="mm"
     inkscape:current-layer="layer1"
     showgrid="false"
     fit-margin-top="0"
     fit-margin-left="0"
     fit-margin-right="0"
     fit-margin-bottom="0"
     units="px"
     inkscape:window-width="1280"
     inkscape:window-height="744"
     inkscape:window-x="-4"
     inkscape:window-y="-4"
     inkscape:window-maximized="1" />
  <metadata
     id="metadata2869">
    <rdf:RDF>
      <cc:Work
         rdf:about="">
        <dc:format>image/svg+xml</dc:format>
        <dc:type
           rdf:resource="http://purl.org/dc/dcmitype/StillImage" />
        <dc:title></dc:title>
      </cc:Work>
    </rdf:RDF>
  </metadata>
  <g
     inkscape:label="Layer 1"
     inkscape:groupmode="layer"
     id="layer1"
     transform="translate(-85.93653,-152.40139)">
    <g
       id="g3002"
       transform="translate(0.26458346,-0.26457609)">
      <path
         d="m 88.471235,158.79633 c 0.234244,0 0.431094,-0.0282 0.590197,-0.0843 0.159456,-0.0561 0.286456,-0.13124 0.382059,-0.22508 0.09525,-0.0935 0.163688,-0.20284 0.206022,-0.32773 0.04233,-0.12488 0.06315,-0.25788 0.06315,-0.39828 0,-0.14676 -0.02328,-0.2787 -0.0702,-0.39582 -0.04692,-0.11712 -0.120297,-0.21696 -0.220133,-0.29986 -0.100189,-0.0829 -0.228953,-0.14605 -0.386645,-0.18979 -0.157691,-0.0438 -0.347486,-0.0656 -0.56903,-0.0656 h -1.269647 v 1.98649 z m -1.274233,-4.81612 v 1.95827 h 1.002594 c 0.430742,0 0.756708,-0.078 0.976842,-0.23425 0.220133,-0.15628 0.3302,-0.40428 0.3302,-0.74506 0,-0.35278 -0.100189,-0.60431 -0.299861,-0.75424 -0.200025,-0.14993 -0.512234,-0.22472 -0.936978,-0.22472 z m 1.072797,-0.97437 c 0.443442,0 0.82303,0.042 1.138414,0.12629 0.315383,0.0843 0.573969,0.20461 0.775405,0.36089 0.201436,0.15628 0.348898,0.34502 0.442736,0.56692 0.09349,0.22154 0.140406,0.47166 0.140406,0.7493 0,0.15945 -0.02328,0.31185 -0.0702,0.45684 -0.04692,0.14535 -0.119591,0.28117 -0.218016,0.40781 -0.09807,0.1263 -0.223309,0.2413 -0.37465,0.34432 -0.151342,0.10301 -0.331964,0.1905 -0.541162,0.26211 0.930628,0.20955 1.396295,0.71226 1.396295,1.50883 0,0.28716 -0.05468,0.5528 -0.164042,0.79622 -0.109361,0.24377 -0.268816,0.45367 -0.478014,0.63006 -0.209197,0.17674 -0.466725,0.31503 -0.772936,0.41487 -0.306211,0.0998 -0.655814,0.14993 -1.049514,0.14993 H 85.93653 v -6.77439 z"
         style="fill:#211d1d;fill-opacity:1;fill-rule:nonzero;stroke:none;stroke-width:0.35277778"
         id="path2178"
         inkscape:connector-curvature="0" />
      <path
         d="m 94.153991,156.22892 c 0.237419,0 0.444147,-0.0296 0.620889,-0.0889 0.176389,-0.0593 0.32138,-0.14146 0.43568,-0.24589 0.113948,-0.10477 0.198967,-0.22895 0.255059,-0.37253 0.05644,-0.14358 0.08431,-0.30127 0.08431,-0.47343 0,-0.34325 -0.112889,-0.60713 -0.339373,-0.79163 -0.226483,-0.18415 -0.572558,-0.27623 -1.037872,-0.27623 H 93.36694 v 2.24861 z m 3.242028,3.55106 h -1.138414 c -0.215547,0 -0.371828,-0.0843 -0.468489,-0.25294 l -1.424164,-2.16888 c -0.05327,-0.0815 -0.11183,-0.13899 -0.175683,-0.17357 -0.06421,-0.0342 -0.15875,-0.0515 -0.283634,-0.0515 h -0.538691 v 2.64689 h -1.260122 v -6.77439 h 2.065866 c 0.459317,0 0.85337,0.0476 1.182864,0.14287 0.329495,0.0956 0.599722,0.22896 0.810683,0.40076 0.210962,0.1718 0.366184,0.37712 0.46602,0.61595 0.09984,0.23918 0.14993,0.502 0.14993,0.78952 0,0.22789 -0.03351,0.44344 -0.100541,0.64664 -0.06738,0.20285 -0.164042,0.387 -0.290689,0.5528 -0.126295,0.16545 -0.282575,0.3108 -0.468489,0.43568 -0.185914,0.12488 -0.397228,0.22331 -0.634647,0.29492 0.08114,0.0469 0.155928,0.10231 0.224719,0.16651 0.06879,0.0639 0.131234,0.1397 0.187325,0.22719 z"
         style="fill:#211d1d;fill-opacity:1;fill-rule:nonzero;stroke:none;stroke-width:0.35277778"
         id="path2182"
         inkscape:connector-curvature="0" />
      <path
         inkscape:connector-curvature="0"
         id="path2184"
         style="fill:#211d1d;fill-opacity:1;fill-rule:nonzero;stroke:none;stroke-width:0.35277778"
         d="M 99.396551,159.78023 H 98.13149 v -6.77439 h 1.265061 z" />
      <path
         d="m 104.51694,154.23784 c -0.0374,0.0656 -0.0773,0.11324 -0.11959,0.14287 -0.042,0.0296 -0.0945,0.0445 -0.15699,0.0445 -0.0656,0 -0.13652,-0.024 -0.21308,-0.0727 -0.0766,-0.0483 -0.16792,-0.10195 -0.2741,-0.16157 -0.10619,-0.0593 -0.23037,-0.11324 -0.37254,-0.16157 -0.14181,-0.0483 -0.30974,-0.0727 -0.50341,-0.0727 -0.17498,0 -0.32808,0.0212 -0.45932,0.0631 -0.13088,0.0423 -0.24094,0.1009 -0.3302,0.17604 -0.0889,0.0748 -0.15522,0.16475 -0.19896,0.26917 -0.0438,0.10477 -0.0656,0.21943 -0.0656,0.34431 0,0.15946 0.0444,0.2921 0.13335,0.39829 0.0893,0.10618 0.20708,0.19685 0.35384,0.27163 0.14675,0.0751 0.31397,0.14217 0.50129,0.20144 0.18733,0.0596 0.37959,0.12277 0.57609,0.1898 0.19685,0.0674 0.38911,0.14534 0.57644,0.23424 0.18732,0.0889 0.35454,0.20144 0.50129,0.33726 0.14676,0.13581 0.26459,0.30233 0.35384,0.49918 0.0889,0.19649 0.13335,0.43568 0.13335,0.71684 0,0.30586 -0.0522,0.59231 -0.15699,0.85937 -0.10442,0.26705 -0.25752,0.49988 -0.45896,0.69814 -0.20144,0.19827 -0.44767,0.35455 -0.73801,0.46849 -0.29034,0.11395 -0.62301,0.1711 -0.99801,0.1711 -0.21519,0 -0.42792,-0.0212 -0.63712,-0.0632 -0.20919,-0.0423 -0.40992,-0.1023 -0.60183,-0.18062 -0.19227,-0.078 -0.37254,-0.17145 -0.54117,-0.28081 -0.16862,-0.10936 -0.31855,-0.23107 -0.44979,-0.36548 l 0.37007,-0.60431 c 0.0314,-0.0437 0.072,-0.0804 0.12171,-0.11042 0.0501,-0.0296 0.10336,-0.0444 0.15945,-0.0444 0.078,0 0.16228,0.0321 0.25294,0.0963 0.0907,0.0639 0.19826,0.13512 0.32315,0.21308 0.12523,0.078 0.27093,0.14923 0.43815,0.21308 0.16721,0.0642 0.36794,0.0959 0.60219,0.0959 0.35913,0 0.63712,-0.085 0.83397,-0.25541 0.19649,-0.17004 0.29492,-0.41451 0.29492,-0.73307 0,-0.1778 -0.0444,-0.32314 -0.13335,-0.43568 -0.0893,-0.11254 -0.20708,-0.20673 -0.35384,-0.28328 -0.14675,-0.0765 -0.31397,-0.14146 -0.5013,-0.19438 -0.18732,-0.0533 -0.37782,-0.11113 -0.5715,-0.17357 -0.19367,-0.0624 -0.38417,-0.13723 -0.5715,-0.22472 -0.18767,-0.0875 -0.35454,-0.20143 -0.50129,-0.34219 -0.14676,-0.14041 -0.26459,-0.31609 -0.35384,-0.52705 -0.0889,-0.21061 -0.13335,-0.47061 -0.13335,-0.77999 0,-0.2466 0.049,-0.48719 0.14746,-0.72143 0.0984,-0.23425 0.2413,-0.44203 0.42863,-0.62301 0.18732,-0.18133 0.41839,-0.32632 0.69356,-0.43568 0.27446,-0.10936 0.5902,-0.16404 0.94615,-0.16404 0.3997,0 0.76835,0.0624 1.1056,0.18732 0.33726,0.12489 0.62477,0.29986 0.86219,0.52458 z"
         style="fill:#211d1d;fill-opacity:1;fill-rule:nonzero;stroke:none;stroke-width:0.35277778"
         id="path2188"
         inkscape:connector-curvature="0" />
      <path
         d="M 110.78058,154.0411 H 108.738 v 5.73899 h -1.26013 v -5.73899 h -2.04258 v -1.0354 h 5.34529 z"
         style="fill:#211d1d;fill-opacity:1;fill-rule:nonzero;stroke:none;stroke-width:0.35277778"
         id="path2192"
         inkscape:connector-curvature="0" />
      <path
         d="m 115.63876,158.7401 v 1.03999 h -3.96804 v -6.77439 h 1.26012 v 5.7344 z"
         style="fill:#211d1d;fill-opacity:1;fill-rule:nonzero;stroke:none;stroke-width:0.35277778"
         id="path2196"
         inkscape:connector-curvature="0" />
      <path
         d="m 117.80308,154.00829 v 1.87854 h 2.37067 v 0.96979 h -2.37067 v 1.91629 h 3.00778 v 1.00718 h -4.27284 v -6.77439 h 4.27284 v 1.00259 z"
         style="fill:#211d1d;fill-opacity:1;fill-rule:nonzero;stroke:none;stroke-width:0.35277778"
         id="path2200"
         inkscape:connector-curvature="0" />
      <path
         d="m 126.43287,158.18253 c 0.0688,0 0.12982,0.0265 0.18274,0.0797 l 0.49671,0.53869 c -0.27517,0.34043 -0.61313,0.60113 -1.01424,0.78246 -0.40146,0.18098 -0.88335,0.27164 -1.44533,0.27164 -0.50306,0 -0.95497,-0.0857 -1.35643,-0.25753 -0.40146,-0.1718 -0.74436,-0.41063 -1.02834,-0.71684 -0.28434,-0.30621 -0.50201,-0.67169 -0.65335,-1.09644 -0.15169,-0.42474 -0.22754,-0.88829 -0.22754,-1.39135 0,-0.50906 0.0811,-0.97508 0.24377,-1.39841 0.16228,-0.42334 0.39123,-0.78776 0.6865,-1.09397 0.29493,-0.30585 0.647,-0.54433 1.05622,-0.71437 0.40922,-0.17039 0.86219,-0.25541 1.35855,-0.25541 0.49353,0 0.93168,0.0811 1.31445,0.24377 0.38241,0.16227 0.70802,0.37465 0.97649,0.63711 l -0.42157,0.58561 c -0.0251,0.0374 -0.0568,0.0702 -0.096,0.0984 -0.0392,0.0279 -0.0928,0.042 -0.16157,0.042 -0.0469,0 -0.0952,-0.0134 -0.14534,-0.0399 -0.0501,-0.0265 -0.10478,-0.0593 -0.16405,-0.0984 -0.0593,-0.0388 -0.12805,-0.0818 -0.20602,-0.12876 -0.078,-0.0469 -0.16863,-0.0896 -0.27164,-0.12877 -0.10336,-0.0392 -0.2226,-0.072 -0.35842,-0.0984 -0.13582,-0.0265 -0.2928,-0.0399 -0.47096,-0.0399 -0.30303,0 -0.58032,0.054 -0.83149,0.16158 -0.25154,0.10795 -0.46779,0.26423 -0.64912,0.46849 -0.18097,0.20461 -0.32173,0.45473 -0.42157,0.74965 -0.0998,0.29527 -0.14993,0.63182 -0.14993,1.00965 0,0.381 0.054,0.72002 0.16193,1.0167 0.1076,0.29669 0.25365,0.54646 0.4378,0.74966 0.18415,0.20284 0.40146,0.35842 0.65122,0.46602 0.25012,0.10759 0.51859,0.16157 0.80575,0.16157 0.1718,0 0.32738,-0.009 0.46637,-0.0282 0.139,-0.0187 0.26705,-0.0483 0.38418,-0.0889 0.11712,-0.0406 0.22789,-0.0928 0.33267,-0.15699 0.10442,-0.0639 0.20849,-0.14288 0.3115,-0.23636 0.031,-0.0282 0.0639,-0.0508 0.0984,-0.0681 0.0342,-0.0169 0.0702,-0.0257 0.1076,-0.0257"
         style="fill:#211d1d;fill-opacity:1;fill-rule:nonzero;stroke:none;stroke-width:0.35277778"
         id="path2204"
         inkscape:connector-curvature="0" />
      <path
         d="m 141.11559,153.0057 v 6.77439 h -0.64629 c -0.10019,0 -0.1838,-0.0162 -0.25082,-0.049 -0.0674,-0.0328 -0.13194,-0.0882 -0.19438,-0.16652 l -3.53695,-4.51626 c 0.0187,0.20603 0.0279,0.39688 0.0279,0.5715 v 4.16031 h -1.11055 v -6.77439 h 0.66075 c 0.0529,0 0.0991,0.002 0.13829,0.007 0.0388,0.005 0.0734,0.0141 0.10301,0.0282 0.0296,0.0138 0.0586,0.0342 0.0868,0.0607 0.0279,0.0268 0.0593,0.0617 0.0938,0.10548 l 3.55106,4.53495 c -0.01,-0.109 -0.0173,-0.21695 -0.0236,-0.32314 -0.006,-0.10619 -0.009,-0.20461 -0.009,-0.29528 v -4.11797 z"
         style="fill:#211d1d;fill-opacity:1;fill-rule:nonzero;stroke:none;stroke-width:0.35277778"
         id="path2208"
         inkscape:connector-curvature="0" />
      <path
         d="m 143.88895,154.00829 v 1.87854 h 2.37067 v 0.96979 h -2.37067 v 1.91629 h 3.00778 v 1.00718 h -4.27284 v -6.77439 h 4.27284 v 1.00259 z"
         style="fill:#211d1d;fill-opacity:1;fill-rule:nonzero;stroke:none;stroke-width:0.35277778"
         id="path2212"
         inkscape:connector-curvature="0" />
      <path
         d="m 134.18425,155.44657 c -0.0734,-0.29986 -0.18027,-0.57785 -0.32103,-0.83397 -0.1404,-0.25611 -0.3115,-0.48789 -0.51294,-0.69567 -0.0935,-0.0963 -0.19297,-0.18521 -0.29739,-0.26812 l -0.49459,0.81351 c -0.0688,0.11254 -0.0603,0.25365 0.0152,0.36195 0.11606,0.16616 0.21025,0.3556 0.28257,0.56833 0.0998,0.29527 0.14993,0.62864 0.14993,1.00047 0,0.37148 -0.0501,0.70485 -0.14993,1.00013 -0.0998,0.29492 -0.242,0.54504 -0.42651,0.74965 -0.18415,0.20461 -0.40816,0.3616 -0.67204,0.47061 -0.26388,0.10936 -0.56162,0.16404 -0.89253,0.16404 -0.22225,0 -0.42862,-0.0254 -0.61983,-0.0751 -0.13864,-0.036 -0.28363,0.0286 -0.35807,0.15063 l -0.4452,0.73237 c 0,0 0,3.5e-4 0,3.5e-4 0.42757,0.17957 0.9017,0.26952 1.4231,0.26952 0.51541,0 0.9839,-0.0868 1.40547,-0.25999 0.42157,-0.17357 0.78246,-0.41487 1.08232,-0.7239 0.29986,-0.30939 0.53164,-0.67557 0.69568,-1.09855 0.16404,-0.42334 0.24589,-0.88336 0.24589,-1.37972 0,-0.33126 -0.0367,-0.64664 -0.11007,-0.9465"
         style="fill:#4d76c3;fill-opacity:1;fill-rule:nonzero;stroke:none;stroke-width:0.35277778"
         id="path2216"
         inkscape:connector-curvature="0" />
      <path
         d="m 127.54081,157.33925 c 0.0734,0.29986 0.18062,0.57785 0.32103,0.83397 0.14076,0.25611 0.3115,0.48789 0.51294,0.69567 0.0935,0.0963 0.19297,0.18521 0.29739,0.26776 l 0.49459,-0.81315 c 0.0688,-0.11254 0.0603,-0.25365 -0.0152,-0.36195 -0.11606,-0.16616 -0.21025,-0.3556 -0.28257,-0.56833 -0.0998,-0.29527 -0.14993,-0.62864 -0.14993,-1.00047 0,-0.37148 0.0501,-0.70485 0.14993,-1.00013 0.10019,-0.29492 0.24236,-0.54504 0.42651,-0.74965 0.18415,-0.20461 0.40816,-0.3616 0.67204,-0.47061 0.26423,-0.10936 0.56162,-0.16404 0.89253,-0.16404 0.22225,0 0.42862,0.0254 0.62018,0.0751 0.13829,0.036 0.28328,-0.0286 0.35772,-0.15063 l 0.44555,-0.73237 c 0,0 -3.5e-4,-3.5e-4 -3.5e-4,-3.5e-4 -0.42757,-0.17957 -0.9017,-0.26952 -1.4231,-0.26952 -0.51506,0 -0.9839,0.0868 -1.40547,0.25999 -0.42157,0.17357 -0.78246,0.41487 -1.08232,0.7239 -0.29986,0.30939 -0.53164,0.67557 -0.69568,1.09855 -0.16369,0.42334 -0.24589,0.88336 -0.24589,1.37972 0,0.33126 0.0367,0.64664 0.11007,0.9465"
         style="fill:#4d76c3;fill-opacity:1;fill-rule:nonzero;stroke:none;stroke-width:0.35277778"
         id="path2220"
         inkscape:connector-curvature="0" />
    </g>
  </g>
</svg>
