<svg
    xmlns="http://www.w3.org/2000/svg"
    viewBox="0 0 178 29"
    id="vector">
    <path
        id="path"
        d="M 50.769 8.101 L 50.769 7.067 C 50.769 6.766 50.87 6.517 51.072 6.319 C 51.273 6.121 51.517 6.022 51.803 6.022 L 64.649 6.022 C 64.935 6.022 65.179 6.121 65.381 6.319 C 65.582 6.517 65.683 6.766 65.683 7.067 L 65.683 8.299 C 65.683 8.599 65.619 8.889 65.491 9.168 C 65.362 9.446 65.243 9.644 65.133 9.762 L 64.649 10.256 L 55.993 18.681 L 64.759 18.681 C 65.06 18.681 65.307 18.78 65.502 18.978 C 65.696 19.176 65.793 19.426 65.793 19.726 L 65.793 20.76 C 65.793 21.061 65.696 21.308 65.502 21.502 C 65.307 21.697 65.06 21.794 64.759 21.794 L 51.99 21.794 C 51.704 21.794 51.46 21.697 51.259 21.502 C 51.057 21.308 50.956 21.061 50.956 20.76 L 50.956 19.539 C 50.956 18.835 51.301 18.139 51.99 17.45 L 60.371 9.135 L 51.803 9.135 C 51.517 9.135 51.273 9.037 51.072 8.843 C 50.87 8.649 50.769 8.401 50.769 8.101 Z M 67.927 20.738 L 67.927 7.045 C 67.927 6.759 68.03 6.517 68.235 6.319 C 68.44 6.121 68.686 6.022 68.972 6.022 L 81.653 6.022 C 81.939 6.022 82.183 6.125 82.385 6.33 C 82.586 6.535 82.687 6.781 82.687 7.067 L 82.687 8.101 C 82.687 8.387 82.586 8.63 82.385 8.832 C 82.183 9.034 81.939 9.135 81.653 9.135 L 72.073 9.135 L 72.073 12.335 L 80.322 12.335 C 80.608 12.335 80.852 12.436 81.054 12.638 C 81.255 12.839 81.356 13.083 81.356 13.369 L 81.356 14.403 C 81.356 14.689 81.255 14.933 81.054 15.134 C 80.852 15.336 80.608 15.437 80.322 15.437 L 72.073 15.437 L 72.073 18.681 L 81.631 18.681 C 81.91 18.681 82.148 18.78 82.346 18.978 C 82.544 19.176 82.643 19.418 82.643 19.704 L 82.643 20.76 C 82.643 21.046 82.54 21.29 82.335 21.491 C 82.13 21.693 81.884 21.794 81.598 21.794 L 68.972 21.794 C 68.686 21.794 68.44 21.693 68.235 21.491 C 68.03 21.29 67.927 21.039 67.927 20.738 Z M 83.358 8.101 L 83.358 7.067 C 83.358 6.766 83.457 6.517 83.655 6.319 C 83.853 6.121 84.102 6.022 84.403 6.022 L 98.36 6.022 C 98.661 6.022 98.91 6.121 99.108 6.319 C 99.306 6.517 99.405 6.766 99.405 7.067 L 99.405 8.101 C 99.405 8.401 99.306 8.649 99.108 8.843 C 98.91 9.037 98.661 9.135 98.36 9.135 L 93.455 9.135 L 93.455 20.782 C 93.455 21.068 93.354 21.308 93.152 21.502 C 92.95 21.697 92.707 21.794 92.421 21.794 L 90.342 21.794 C 90.056 21.794 89.812 21.697 89.611 21.502 C 89.409 21.308 89.308 21.068 89.308 20.782 L 89.308 9.135 L 84.403 9.135 C 84.102 9.135 83.853 9.037 83.655 8.843 C 83.457 8.649 83.358 8.401 83.358 8.101 Z M 99.9 6.946 C 99.863 6.858 99.845 6.757 99.845 6.643 C 99.845 6.53 99.909 6.398 100.037 6.247 C 100.166 6.097 100.358 6.022 100.615 6.022 L 103.023 6.022 C 103.309 6.022 103.573 6.121 103.815 6.319 C 104.057 6.517 104.23 6.766 104.332 7.067 L 107.236 15.778 L 109.919 7.067 C 110.132 6.37 110.568 6.022 111.228 6.022 L 113.252 6.022 C 113.912 6.022 114.348 6.37 114.561 7.067 L 117.244 15.778 L 120.148 7.067 C 120.251 6.766 120.423 6.517 120.665 6.319 C 120.907 6.121 121.171 6.022 121.457 6.022 L 123.866 6.022 C 124.115 6.022 124.304 6.097 124.432 6.247 C 124.56 6.398 124.625 6.53 124.625 6.643 C 124.625 6.757 124.61 6.858 124.581 6.946 L 119.675 20.672 C 119.404 21.42 118.876 21.794 118.091 21.794 L 116.497 21.794 C 115.683 21.794 115.158 21.42 114.924 20.672 L 112.24 12.203 L 109.556 20.672 C 109.315 21.42 108.79 21.794 107.984 21.794 L 106.378 21.794 C 105.601 21.794 105.076 21.42 104.805 20.672 L 99.9 6.946 Z M 126.428 20.738 L 126.428 7.045 C 126.428 6.759 126.531 6.517 126.736 6.319 C 126.942 6.121 127.187 6.022 127.473 6.022 L 140.154 6.022 C 140.44 6.022 140.684 6.125 140.886 6.33 C 141.088 6.535 141.188 6.781 141.188 7.067 L 141.188 8.101 C 141.188 8.387 141.088 8.63 140.886 8.832 C 140.684 9.034 140.44 9.135 140.154 9.135 L 130.575 9.135 L 130.575 12.335 L 138.824 12.335 C 139.11 12.335 139.353 12.436 139.555 12.638 C 139.757 12.839 139.858 13.083 139.858 13.369 L 139.858 14.403 C 139.858 14.689 139.757 14.933 139.555 15.134 C 139.353 15.336 139.11 15.437 138.824 15.437 L 130.575 15.437 L 130.575 18.681 L 140.132 18.681 C 140.411 18.681 140.649 18.78 140.847 18.978 C 141.045 19.176 141.144 19.418 141.144 19.704 L 141.144 20.76 C 141.144 21.046 141.042 21.29 140.836 21.491 C 140.631 21.693 140.385 21.794 140.099 21.794 L 127.473 21.794 C 127.187 21.794 126.942 21.693 126.736 21.491 C 126.531 21.29 126.428 21.039 126.428 20.738 Z M 159.589 21.321 C 159.589 21.636 159.402 21.794 159.028 21.794 L 156.388 21.794 C 156.11 21.794 155.804 21.693 155.47 21.491 C 155.136 21.29 154.882 21.046 154.706 20.76 L 152.836 17.834 C 152.066 16.632 151.135 16.031 150.042 16.031 L 147.359 16.031 L 147.359 20.76 C 147.359 21.046 147.258 21.29 147.056 21.491 C 146.854 21.693 146.611 21.794 146.325 21.794 L 144.257 21.794 C 143.971 21.794 143.725 21.693 143.52 21.491 C 143.315 21.29 143.212 21.046 143.212 20.76 L 143.212 7.067 C 143.212 6.781 143.311 6.535 143.509 6.33 C 143.707 6.125 143.949 6.022 144.235 6.022 L 153.309 6.022 C 154.988 6.022 156.365 6.473 157.439 7.375 C 158.513 8.277 159.05 9.494 159.05 11.026 C 159.05 13.16 157.668 14.498 154.904 15.041 C 155.343 15.202 155.75 15.479 156.124 15.871 C 156.498 16.263 156.927 16.834 157.411 17.581 L 159.413 20.76 C 159.53 20.965 159.589 21.152 159.589 21.321 Z M 147.359 12.918 L 152.044 12.918 C 152.799 12.918 153.465 12.768 154.04 12.467 C 154.616 12.167 154.904 11.686 154.904 11.026 C 154.904 10.366 154.616 9.886 154.04 9.586 C 153.465 9.285 152.799 9.135 152.044 9.135 L 147.359 9.135 L 147.359 12.918 Z M 177.737 21.31 C 177.737 21.633 177.546 21.794 177.165 21.794 L 174.646 21.794 C 174.36 21.794 174.052 21.693 173.722 21.491 C 173.392 21.29 173.135 21.046 172.952 20.76 L 171.016 17.691 C 170.554 16.944 170.089 16.381 169.62 16.003 C 169.15 15.626 168.586 15.437 167.926 15.437 L 165.561 15.437 L 165.561 20.782 C 165.561 21.068 165.46 21.308 165.259 21.502 C 165.057 21.697 164.813 21.794 164.527 21.794 L 162.46 21.794 C 162.174 21.794 161.928 21.689 161.723 21.48 C 161.517 21.271 161.415 21.024 161.415 20.738 L 161.415 7.067 C 161.415 6.781 161.517 6.532 161.723 6.319 C 161.928 6.106 162.174 6 162.46 6 L 164.527 6 C 164.813 6 165.057 6.106 165.259 6.319 C 165.46 6.532 165.561 6.781 165.561 7.067 L 165.561 12.335 L 167.926 12.335 C 168.571 12.335 169.138 12.159 169.625 11.807 C 170.113 11.455 170.576 10.887 171.016 10.102 L 172.721 7.067 C 173.11 6.363 173.638 6.007 174.305 6 L 176.846 6 C 177.198 6 177.374 6.154 177.374 6.462 C 177.374 6.631 177.311 6.832 177.187 7.067 L 174.8 11.389 C 174.455 12.02 174.069 12.54 173.64 12.951 C 173.211 13.362 172.652 13.651 171.962 13.82 C 172.446 13.923 172.943 14.227 173.453 14.733 C 173.962 15.239 174.411 15.789 174.8 16.383 L 177.55 20.76 C 177.674 20.973 177.737 21.156 177.737 21.31 Z"
        fill="#0079c9"
        stroke="#00000000"
        stroke-width="1"
        fill-rule="evenodd"/>
    <path
        id="path_1"
        d="M 14.226 7.497 L 14.675 7.512 C 14.527 7.502 14.377 7.497 14.226 7.497 Z M 14.675 7.512 C 13.492 9.472 12.811 11.77 12.811 14.226 C 12.811 16.683 13.492 18.981 14.675 20.941 C 14.912 21.334 15.169 21.713 15.445 22.077 C 15.806 22.554 16.2 23.005 16.622 23.428 C 16.722 23.528 16.824 23.626 16.928 23.723 C 17.276 24.049 17.642 24.357 18.024 24.643 C 18.65 25.113 19.319 25.527 20.025 25.879 C 20.485 26.108 20.96 26.311 21.449 26.485 C 22.816 26.973 24.289 27.239 25.824 27.239 C 29.417 27.239 32.67 25.782 35.025 23.428 C 37.38 21.073 38.836 17.82 38.836 14.226 C 38.836 10.633 37.38 7.379 35.025 5.025 C 32.67 2.67 29.417 1.214 25.824 1.214 C 24.289 1.214 22.816 1.479 21.449 1.967 C 22.159 2.386 22.828 2.865 23.452 3.396 C 24.216 3.229 25.009 3.142 25.824 3.142 C 28.885 3.142 31.656 4.383 33.662 6.388 C 35.667 8.394 36.908 11.165 36.908 14.226 C 36.908 17.287 35.667 20.059 33.662 22.065 C 31.656 24.07 28.885 25.311 25.824 25.311 C 25.009 25.311 24.216 25.223 23.451 25.057 C 22.963 24.95 22.488 24.812 22.026 24.643 C 21.323 24.387 20.653 24.062 20.025 23.675 C 19.644 23.441 19.278 23.184 18.93 22.907 C 18.599 22.644 18.284 22.363 17.985 22.065 C 17.8 21.879 17.621 21.687 17.449 21.489 C 17.175 21.172 16.918 20.84 16.68 20.494 C 15.456 18.712 14.739 16.553 14.739 14.226 C 14.739 11.9 15.455 9.741 16.68 7.958 C 16.052 7.712 15.379 7.558 14.675 7.512 Z M 20.025 1.232 C 21.796 0.44 23.758 0 25.824 0 C 29.752 0 33.309 1.592 35.883 4.167 C 38.458 6.741 40.05 10.298 40.05 14.226 C 40.05 18.155 38.458 21.712 35.883 24.286 C 33.309 26.86 29.752 28.453 25.824 28.453 C 23.758 28.453 21.796 28.013 20.025 27.221 C 18.254 28.013 16.292 28.453 14.226 28.453 C 10.298 28.453 6.741 26.86 4.167 24.286 C 1.593 21.712 0 18.155 0 14.226 C 0 10.298 1.593 6.741 4.167 4.167 C 6.741 1.592 10.298 0 14.226 0 C 16.291 0 18.254 0.44 20.025 1.232 Z M 18.601 26.485 C 17.892 26.067 17.222 25.588 16.599 25.057 C 15.834 25.223 15.041 25.311 14.226 25.311 C 11.166 25.311 8.394 24.07 6.388 22.065 C 4.383 20.059 3.142 17.287 3.142 14.226 C 3.142 11.165 4.383 8.394 6.388 6.388 C 8.394 4.383 11.166 3.142 14.226 3.142 C 15.041 3.142 15.834 3.229 16.599 3.396 C 17.086 3.502 17.562 3.641 18.024 3.809 C 18.727 4.065 19.397 4.391 20.025 4.777 C 20.406 5.012 20.772 5.268 21.12 5.546 C 21.451 5.808 21.766 6.09 22.065 6.388 C 22.25 6.574 22.429 6.766 22.601 6.964 C 22.876 7.28 23.132 7.612 23.37 7.958 C 24.595 9.741 25.311 11.9 25.311 14.226 C 25.311 16.553 24.595 18.712 23.37 20.494 C 23.998 20.74 24.672 20.895 25.375 20.941 C 26.558 18.981 27.239 16.683 27.239 14.226 C 27.239 11.77 26.558 9.472 25.375 7.512 C 25.138 7.119 24.881 6.74 24.605 6.376 C 24.244 5.899 23.85 5.447 23.428 5.025 C 23.328 4.925 23.226 4.826 23.123 4.73 C 22.775 4.403 22.409 4.096 22.026 3.809 C 21.4 3.34 20.731 2.926 20.025 2.574 C 19.565 2.345 19.09 2.142 18.601 1.967 C 17.234 1.479 15.761 1.214 14.226 1.214 C 10.633 1.214 7.38 2.67 5.025 5.025 C 2.67 7.379 1.214 10.633 1.214 14.226 C 1.214 17.82 2.67 21.073 5.025 23.428 C 7.38 25.782 10.633 27.239 14.226 27.239 C 15.761 27.239 17.234 26.973 18.601 26.485 Z M 15.501 24.016 C 14.958 23.443 14.461 22.824 14.018 22.167 C 11.907 22.112 10.002 21.235 8.61 19.843 C 7.172 18.405 6.283 16.42 6.283 14.226 C 6.283 12.033 7.172 10.047 8.61 8.61 C 10.002 7.218 11.907 6.34 14.018 6.286 C 14.087 6.284 14.157 6.283 14.226 6.283 C 14.641 6.283 15.048 6.315 15.445 6.376 C 16.147 6.484 16.82 6.685 17.449 6.964 C 17.831 7.134 18.197 7.333 18.545 7.559 C 19.014 7.863 19.449 8.216 19.843 8.61 C 19.905 8.671 19.965 8.734 20.025 8.798 C 20.305 9.097 20.562 9.417 20.793 9.756 C 21.662 11.03 22.17 12.569 22.17 14.226 C 22.17 15.884 21.662 17.423 20.793 18.696 C 20.881 18.795 20.972 18.891 21.065 18.985 C 21.429 19.349 21.834 19.671 22.274 19.944 C 23.422 18.331 24.097 16.357 24.097 14.226 C 24.097 12.095 23.422 10.122 22.274 8.508 C 22.037 8.176 21.78 7.859 21.505 7.559 C 21.408 7.452 21.308 7.348 21.206 7.246 C 20.84 6.88 20.445 6.542 20.025 6.237 C 19.677 5.984 19.311 5.753 18.93 5.546 C 18.3 5.204 17.63 4.929 16.928 4.73 C 16.465 4.598 15.988 4.5 15.501 4.437 C 15.084 4.383 14.658 4.355 14.226 4.355 C 11.501 4.355 9.033 5.46 7.246 7.246 C 5.46 9.032 4.355 11.501 4.355 14.226 C 4.355 16.952 5.46 19.42 7.246 21.206 C 9.033 22.992 11.501 24.097 14.226 24.097 C 14.658 24.097 15.084 24.07 15.501 24.016 Z M 13.249 20.885 C 12.195 18.899 11.597 16.632 11.597 14.226 C 11.597 11.821 12.195 9.554 13.249 7.567 C 11.782 7.781 10.468 8.468 9.468 9.468 C 8.25 10.685 7.497 12.368 7.497 14.226 C 7.497 16.084 8.25 17.767 9.468 18.985 C 10.468 19.985 11.782 20.672 13.249 20.885 Z M 26.801 20.885 C 28.268 20.672 29.582 19.985 30.582 18.985 C 31.8 17.767 32.553 16.084 32.553 14.226 C 32.553 12.368 31.8 10.685 30.582 9.468 C 29.582 8.468 28.268 7.781 26.801 7.567 C 27.856 9.554 28.453 11.821 28.453 14.226 C 28.453 16.632 27.856 18.899 26.801 20.885 Z M 26.032 6.286 C 28.143 6.34 30.049 7.218 31.44 8.61 C 32.877 10.047 33.767 12.033 33.767 14.226 C 33.767 16.42 32.878 18.405 31.44 19.843 C 30.049 21.235 28.143 22.112 26.032 22.167 C 25.963 22.169 25.893 22.17 25.824 22.17 C 25.409 22.17 25.003 22.138 24.605 22.077 C 23.903 21.968 23.23 21.768 22.601 21.489 C 22.219 21.319 21.853 21.12 21.505 20.894 C 21.036 20.59 20.601 20.237 20.207 19.843 C 20.145 19.781 20.085 19.719 20.025 19.655 C 19.745 19.356 19.488 19.036 19.257 18.696 C 18.388 17.423 17.88 15.884 17.88 14.226 C 17.88 12.569 18.388 11.03 19.257 9.756 C 19.169 9.657 19.078 9.561 18.985 9.468 C 18.621 9.104 18.216 8.782 17.776 8.508 C 16.628 10.122 15.953 12.095 15.953 14.226 C 15.953 16.357 16.628 18.331 17.776 19.944 C 18.013 20.277 18.27 20.594 18.545 20.894 C 18.642 21 18.742 21.105 18.844 21.206 C 19.21 21.572 19.605 21.91 20.025 22.216 C 20.374 22.469 20.74 22.7 21.12 22.907 C 21.75 23.249 22.42 23.524 23.122 23.723 C 23.585 23.854 24.062 23.953 24.549 24.016 C 24.966 24.07 25.392 24.097 25.824 24.097 C 28.549 24.097 31.017 22.992 32.804 21.206 C 34.59 19.42 35.695 16.952 35.695 14.226 C 35.695 11.501 34.59 9.032 32.804 7.246 C 31.017 5.46 28.549 4.355 25.824 4.355 C 25.392 4.355 24.966 4.383 24.549 4.437 C 25.093 5.01 25.589 5.628 26.032 6.286 Z M 20.025 10.809 C 19.434 11.811 19.094 12.979 19.094 14.226 C 19.094 15.473 19.434 16.642 20.025 17.643 C 20.616 16.642 20.956 15.473 20.956 14.226 C 20.956 12.979 20.616 11.811 20.025 10.809 Z"
        fill="#0079c9"
        stroke="#00000000"
        stroke-width="1"
        fill-rule="evenodd"/>
</svg>
